<svg xmlns="http://www.w3.org/2000/svg" width="28" height="28"><path fill="#fff" d="M26.301 28l-8.254-8.269a11.038 11.038 0 01-6.964 2.465C4.966 22.196 0 17.223 0 11.098 0 4.973 4.958 0 11.083 0c6.118 0 11.084 4.966 11.084 11.098a11.07 11.07 0 01-2.428 6.934L28 26.302zm-15.218-7.796c2.427 0 4.714-.95 6.432-2.668a9.069 9.069 0 002.661-6.438c0-2.434-.943-4.72-2.66-6.439a9.044 9.044 0 00-6.433-2.667c-2.427 0-4.72.956-6.431 2.674a9.068 9.068 0 00-2.661 6.439 9.04 9.04 0 002.66 6.438 9.01 9.01 0 006.432 2.661z"/></svg>